<?xml version="1.0" encoding="UTF-8"?>
<svg xmlns="http://www.w3.org/2000/svg" xmlns:xlink="http://www.w3.org/1999/xlink" viewBox="0 0 48 48" width="48px" height="48px">
<g id="surface89653955">
<rect x="0" y="0" width="48" height="48" style="fill:rgb(100%,100%,100%);fill-opacity:1;stroke:none;"/>
<path style=" stroke:none;fill-rule:nonzero;fill:rgb(1.176471%,66.274512%,95.686275%);fill-opacity:1;" d="M 42 37 C 42 38.105469 41.105469 39 40 39 L 8 39 C 6.894531 39 6 38.105469 6 37 L 6 15 C 6 13.894531 6.894531 13 8 13 L 40 13 C 41.105469 13 42 13.894531 42 15 Z M 42 37 "/>
<path style=" stroke:none;fill-rule:nonzero;fill:rgb(1.176471%,66.274512%,95.686275%);fill-opacity:1;" d="M 33 16 C 33 17.105469 32.105469 18 31 18 L 17 18 C 15.894531 18 15 17.105469 15 16 L 15 11 C 15 9.894531 15.894531 9 17 9 L 31 9 C 32.105469 9 33 9.894531 33 11 Z M 33 16 "/>
<path style=" stroke:none;fill-rule:nonzero;fill:rgb(100%,100%,100%);fill-opacity:1;" d="M 37 16 C 35.894531 16 35 16.894531 35 18 C 35 19.105469 35.894531 20 37 20 C 38.105469 20 39 19.105469 39 18 C 39 16.894531 38.105469 16 37 16 Z M 37 16 "/>
<path style=" stroke:none;fill-rule:nonzero;fill:rgb(70.19608%,89.803922%,98.823529%);fill-opacity:1;" d="M 24 16 C 18.476562 16 14 20.476562 14 26 C 14 31.523438 18.476562 36 24 36 C 29.523438 36 34 31.523438 34 26 C 34 20.476562 29.523438 16 24 16 Z M 24 16 "/>
<path style=" stroke:none;fill-rule:nonzero;fill:rgb(0.392157%,34.117648%,60.784316%);fill-opacity:1;" d="M 24 18 C 19.582031 18 16 21.582031 16 26 C 16 30.417969 19.582031 34 24 34 C 28.417969 34 32 30.417969 32 26 C 32 21.582031 28.417969 18 24 18 Z M 24 18 "/>
<path style=" stroke:none;fill-rule:nonzero;fill:rgb(0.784314%,46.666667%,74.117649%);fill-opacity:1;" d="M 20 30 C 20 31.171875 20.257812 32.285156 20.710938 33.285156 C 21.714844 33.742188 22.828125 34 24 34 C 28.417969 34 32 30.417969 32 26 C 32 24.828125 31.742188 23.714844 31.285156 22.714844 C 30.28125 22.257812 29.175781 22 28 22 C 23.582031 22 20 25.582031 20 30 Z M 20 30 "/>
</g>
</svg>
